<?xml version="1.0" encoding="UTF-8"?>
<svg version="1.1" xmlns="http://www.w3.org/2000/svg" width="1024" height="1024">
<path d="M0 0 C337.92 0 675.84 0 1024 0 C1024 337.92 1024 675.84 1024 1024 C686.08 1024 348.16 1024 0 1024 C0 686.08 0 348.16 0 0 Z " fill="#FDFDFD" transform="translate(0,0)"/>
<path d="M0 0 C10.96449237 7.60685371 17.7972411 16.67965157 21.2578125 29.56640625 C21.4846875 30.39140625 21.7115625 31.21640625 21.9453125 32.06640625 C23.64942294 45.6992898 20.49385098 58.45620951 12.07421875 69.40625 C8.19644486 73.85947768 4.41257862 77.65858946 -0.7421875 80.56640625 C-0.15540696 84.04848549 1.06472325 85.85615105 3.5078125 88.37890625 C4.09046875 89.00410156 4.673125 89.62929688 5.2734375 90.2734375 C7.17763883 91.79622938 7.17763883 91.79622938 9.5 91.421875 C10.41007813 91.13957031 11.32015625 90.85726562 12.2578125 90.56640625 C13.49273438 90.18484375 14.72765625 89.80328125 16 89.41015625 C18.06887717 88.74162806 20.13502795 88.06567335 22.19921875 87.3828125 C40.93233284 81.35253387 64.73982627 82.58510112 82.4453125 91.12890625 C103.18502732 101.86760262 115.21615767 120.10719998 122.9453125 141.56640625 C131.81721726 170.00429624 133.73494217 200.05720597 136.2578125 229.56640625 C126.94032837 229.94757606 117.9449553 228.79427761 108.7578125 227.44140625 C107.61079865 227.27484528 107.61079865 227.27484528 106.44061279 227.10491943 C70.90479549 221.90624475 27.36356008 214.69347184 4.28515625 183.9375 C0.19002705 177.82523709 -2.66716064 171.61756389 -4.7421875 164.56640625 C-5.09925781 163.4475 -5.45632813 162.32859375 -5.82421875 161.17578125 C-7.39002208 154.74396622 -7.13643528 148.08431493 -7.1171875 141.50390625 C-7.11664368 140.81043091 -7.11609985 140.11695557 -7.11553955 139.40246582 C-7.06140407 124.44115094 -4.81555345 112.51070298 3.2578125 99.56640625 C-3.01799173 90.70897481 -3.01799173 90.70897481 -12.40576172 86.01513672 C-17.37660636 85.71764883 -22.28568069 86.05568402 -27.25 86.3515625 C-38.86792833 87.03392295 -48.28996381 82.21063823 -56.89453125 74.68359375 C-65.82641502 66.20079911 -70.85780449 56.43971576 -72.09375 44.0390625 C-72.45846612 29.03596773 -68.218033 17.63011475 -58.3046875 6.37890625 C-42.76229816 -8.45840428 -18.30780479 -10.99124481 0 0 Z " fill="#5586D2" transform="translate(551.7421875,490.43359375)"/>
<path d="M0 0 C1.90168945 -0.01740234 1.90168945 -0.01740234 3.84179688 -0.03515625 C15.086026 -0.0002182 24.32425677 1.44734236 32.6875 9.375 C41.50694406 18.47005168 45.27857482 29.52490853 45.38134766 42.0690918 C45.35862793 43.3044165 45.3359082 44.53974121 45.3125 45.8125 C45.30138184 47.11421143 45.29026367 48.41592285 45.27880859 49.75708008 C45.0298892 60.59971617 43.18010807 70.53192512 40.31542969 80.9465332 C37.90719997 90.260165 37.04481391 99.7548631 36.1875 109.3125 C36.07019531 110.55451172 35.95289063 111.79652344 35.83203125 113.07617188 C35.50729679 116.60809557 35.20364015 120.14058426 34.91102409 123.67525101 C34.75925871 125.50829033 34.60555238 127.34116979 34.45010567 129.1739006 C32.8132409 148.79447226 32.22776708 168.34586196 31.91185641 188.02340579 C31.84209835 192.25497255 31.76310314 196.48636781 31.68507385 200.7177887 C31.53898574 208.7063787 31.39985272 216.69507131 31.26385599 224.6838389 C31.02035763 238.97896927 30.76636404 253.27391295 30.50734669 267.56876999 C30.41721271 272.5595594 30.33071206 277.55039429 30.24714357 282.54129773 C29.97250025 298.83586385 29.58409268 315.09990409 28.6875 331.375 C18.7875 331.375 8.8875 331.375 -1.3125 331.375 C-1.55484375 328.43464844 -1.7971875 325.49429687 -2.046875 322.46484375 C-2.38349671 318.41390109 -2.72274478 314.36318098 -3.0625 310.3125 C-3.1507605 309.25856049 -3.239021 308.20462097 -3.32995605 307.1187439 C-4.71139309 290.69431741 -6.26966272 274.29720751 -8.09277344 257.91577148 C-8.98842773 249.7141763 -9.56459998 241.63727689 -9.3125 233.375 C-9.9725 233.375 -10.6325 233.375 -11.3125 233.375 C-11.57192383 234.24253906 -11.83134766 235.11007812 -12.09863281 236.00390625 C-13.33097564 239.42630966 -14.83864598 242.21311768 -16.734375 245.3125 C-17.07082535 245.86575455 -17.4072757 246.41900909 -17.75392151 246.98902893 C-18.85062324 248.78820161 -19.95622343 250.5817016 -21.0625 252.375 C-21.83256256 253.63255532 -22.60233462 254.89028856 -23.37182617 256.14819336 C-29.14790648 265.56975282 -35.03982811 274.91617813 -41.01171875 284.21484375 C-43.27019794 287.73256377 -45.49942712 291.26653805 -47.70703125 294.81640625 C-48.52337036 296.12532837 -48.52337036 296.12532837 -49.35620117 297.46069336 C-50.37753993 299.10079595 -51.39491975 300.74337357 -52.4074707 302.38891602 C-54.74724897 306.13611701 -56.97558641 309.41407668 -60.3125 312.375 C-60.7657666 312.03243164 -61.2190332 311.68986328 -61.68603516 311.33691406 C-63.76855332 309.76454119 -65.85300918 308.19475666 -67.9375 306.625 C-68.65035156 306.08617187 -69.36320312 305.54734375 -70.09765625 304.9921875 C-74.09281108 301.98665818 -78.12024506 299.09930447 -82.3125 296.375 C-81.63612477 291.50220214 -79.69225077 287.36534448 -77.69140625 282.921875 C-77.13401764 281.66736542 -77.13401764 281.66736542 -76.56536865 280.38751221 C-75.76069791 278.57798879 -74.95371609 276.76949168 -74.14468384 274.96191406 C-72.86103576 272.09379904 -71.58335256 269.22309665 -70.30737305 266.3515625 C-68.53268789 262.35800923 -66.75614657 258.36528968 -64.97851562 254.37304688 C-61.21586231 245.91545585 -57.48608125 237.44346312 -53.76412964 228.96789551 C-52.66206567 226.45936916 -51.55782983 223.95180777 -50.45336914 221.44433594 C-46.86988289 213.29701922 -43.33082049 205.13157582 -39.85546875 196.9375 C-39.5142952 196.13803955 -39.17312164 195.3385791 -38.8216095 194.51489258 C-38.34953316 193.39570435 -38.34953316 193.39570435 -37.86791992 192.25390625 C-37.59090744 191.5997876 -37.31389496 190.94566895 -37.02848816 190.27172852 C-35.61080286 186.51612992 -35.12913281 182.9963547 -34.86352539 178.99682617 C-34.75309906 177.37399719 -34.75309906 177.37399719 -34.64044189 175.71838379 C-34.56444763 174.54674683 -34.48845337 173.37510986 -34.41015625 172.16796875 C-34.32811951 170.94678345 -34.24608276 169.72559814 -34.16156006 168.46740723 C-33.9413136 165.17783072 -33.72428369 161.88806207 -33.50879288 158.59817123 C-33.28603644 155.20891111 -33.05914289 151.81992792 -32.83276367 148.4309082 C-31.83723956 133.50052079 -30.85211409 118.56926486 -29.90844727 103.63549805 C-29.77835835 101.57757019 -29.64261111 99.51998864 -29.5 97.46289062 C-29.36310274 95.20836381 -29.27019676 92.95104257 -29.203125 90.69335938 C-28.77424682 80.15285334 -28.77424682 80.15285334 -26.2734375 76.8828125 C-25.42007813 76.09648437 -24.56671875 75.31015625 -23.6875 74.5 C-22.78257812 73.62085938 -21.87765625 72.74171875 -20.9453125 71.8359375 C-20.07648438 71.02382813 -19.20765625 70.21171875 -18.3125 69.375 C-17.04235923 67.9763625 -15.78977075 66.56140209 -14.5625 65.125 C-14.01980469 64.50109375 -13.47710937 63.8771875 -12.91796875 63.234375 C-10.37431846 60.28844425 -7.84038469 57.33447476 -5.3125 54.375 C-6.034375 54.1275 -6.75625 53.88 -7.5 53.625 C-10.61189604 52.24193509 -12.72508274 50.58377083 -15.3125 48.375 C-19.55574694 44.81689062 -23.85183499 41.36477096 -28.25 38 C-28.79333984 37.58363281 -29.33667969 37.16726563 -29.89648438 36.73828125 C-32.69045344 34.60192135 -35.4947217 32.47984644 -38.3125 30.375 C-35.0064989 19.34940241 -28.62069046 7.65666837 -18.4921875 1.72265625 C-12.65543804 -0.65196743 -6.18768368 -0.05610998 0 0 Z " fill="#132840" transform="translate(415.3125,371.625)"/>
<path d="M0 0 C10.96449237 7.60685371 17.7972411 16.67965157 21.2578125 29.56640625 C21.4846875 30.39140625 21.7115625 31.21640625 21.9453125 32.06640625 C23.65405465 45.73634347 20.40948076 58.22695539 12.21484375 69.3359375 C3.40161556 79.74022636 -7.84392105 85.54424596 -21.44921875 86.94921875 C-35.2133729 87.37447583 -46.54631734 83.73593332 -56.89453125 74.68359375 C-65.82641502 66.20079911 -70.85780449 56.43971576 -72.09375 44.0390625 C-72.45846612 29.03596773 -68.218033 17.63011475 -58.3046875 6.37890625 C-42.76229816 -8.45840428 -18.30780479 -10.99124481 0 0 Z " fill="#4CB820" transform="translate(551.7421875,490.43359375)"/>
<path d="M0 0 C1.90168945 -0.01740234 1.90168945 -0.01740234 3.84179688 -0.03515625 C15.086026 -0.0002182 24.32425677 1.44734236 32.6875 9.375 C41.50682906 18.46993309 45.27795101 29.52420987 45.3815918 42.06811523 C45.34739136 43.92158569 45.34739136 43.92158569 45.3125 45.8125 C45.29473511 47.76941772 45.29473511 47.76941772 45.27661133 49.76586914 C45.04732997 59.58645294 43.66724643 68.69695025 41.07421875 78.15234375 C39.30408906 84.81900121 38.04024196 91.61129022 36.6875 98.375 C14.9075 98.375 -6.8725 98.375 -29.3125 98.375 C-28.20609039 78.45962694 -28.20609039 78.45962694 -20.9453125 71.6953125 C-20.07648438 70.92960937 -19.20765625 70.16390625 -18.3125 69.375 C-17.03742873 67.98085593 -15.78435002 66.56601595 -14.5625 65.125 C-14.01980469 64.50109375 -13.47710937 63.8771875 -12.91796875 63.234375 C-10.37431846 60.28844425 -7.84038469 57.33447476 -5.3125 54.375 C-6.034375 54.1275 -6.75625 53.88 -7.5 53.625 C-10.61189604 52.24193509 -12.72508274 50.58377083 -15.3125 48.375 C-19.55574694 44.81689062 -23.85183499 41.36477096 -28.25 38 C-28.79333984 37.58363281 -29.33667969 37.16726563 -29.89648438 36.73828125 C-32.69045344 34.60192135 -35.4947217 32.47984644 -38.3125 30.375 C-35.0064989 19.34940241 -28.62069046 7.65666837 -18.4921875 1.72265625 C-12.65543804 -0.65196743 -6.18768368 -0.05610998 0 0 Z " fill="#D93E43" transform="translate(415.3125,371.625)"/>
<path d="M0 0 C3.20037074 1.86099627 6.17315949 3.81104643 9.07421875 6.109375 C9.82010254 6.69638184 10.56598633 7.28338867 11.33447266 7.88818359 C12.11097168 8.50258301 12.8874707 9.11698242 13.6875 9.75 C19.99777285 14.70561148 26.32629159 19.53968232 33 24 C31.53419622 27.43044131 29.638693 29.51375528 26.9375 32.0625 C22.55132373 36.32133567 18.77644094 40.87969125 15.04296875 45.71484375 C13 48 13 48 10.80078125 49.06640625 C10.20652344 49.37449219 9.61226563 49.68257813 9 50 C8.63200925 51.32418718 8.30489553 52.65987777 8 54 C6.70539263 55.85550947 5.34116433 57.66305641 3.9375 59.4375 C-0.86955155 65.67535856 -5.06183497 72.17720368 -9 79 C-9.3609375 79.61407715 -9.721875 80.2281543 -10.09375 80.86083984 C-15.75400557 90.58203397 -19.82125682 100.34987709 -22.99804688 111.15771484 C-24.95768944 117.40975329 -27.21595667 121.60826166 -33 125 C-37.06814755 125.83023419 -38.58890519 125.22135874 -42.25 123.25 C-45.3751325 120.69307341 -46.57011215 118.84992723 -47.4765625 114.94921875 C-47.90534359 108.41594891 -45.80505615 104.30231472 -42.59106445 98.72094727 C-39.22029206 92.72838428 -36.74765339 86.54727333 -34.3125 80.125 C-28.97594559 66.16155859 -23.14566703 52.423143 -17.25 38.6875 C-16.79638092 37.6278302 -16.34276184 36.5681604 -15.87539673 35.47637939 C-10.7711462 23.5592731 -5.59356088 11.6967936 0 0 Z " fill="#FEC3BC" transform="translate(377,402)"/>
<path d="M0 0 C3.68137204 1.56654129 6.19896612 3.39793224 8 7 C8.78702251 12.64931225 8.31243316 17.23837733 5 22 C-1.14162072 29.20552352 -9.87434088 33.30080334 -19.26416016 34.22216797 C-32.25422728 34.87288636 -32.25422728 34.87288636 -36 33 C-37.91403076 32.80331266 -37.91403076 32.80331266 -40 32.8125 C-40.70125 32.79832031 -41.4025 32.78414063 -42.125 32.76953125 C-44.24524938 32.83487677 -44.24524938 32.83487677 -46 35 C-46.49342828 39.65977375 -46.49342828 39.65977375 -44.8125 43.875 C-42.5774211 45.26229035 -40.59094622 45.64987213 -38 46 C-41.20760251 49.80635497 -44.40746109 53.54563567 -48 57 C-52.29705542 55.4960306 -54.1820611 52.31569406 -56.5 48.625 C-56.89437256 47.99940186 -57.28874512 47.37380371 -57.69506836 46.72924805 C-63.09295743 37.8776961 -66.59580744 28.49364285 -65 18 C-63.30736645 12.61434778 -60.76700364 9.1361866 -56 6 C-53.29761702 4.64880851 -51.13985554 4.86762872 -48.125 4.875 C-46.55105469 4.87113281 -46.55105469 4.87113281 -44.9453125 4.8671875 C-42.41048879 4.9814899 -40.4265121 5.35522701 -38 6 C-28.98079887 6.91848292 -19.95416957 5.20177043 -11.9296875 0.88671875 C-8.17324857 -0.83941817 -4.03690318 -0.42597193 0 0 Z " fill="#12263E" transform="translate(444,292)"/>
<path d="M0 0 C0.99 0.33 1.98 0.66 3 1 C6.06639119 7.94568473 6.19952647 16.35183494 4.3125 23.6640625 C0.68804372 32.45336898 -5.24985169 38.31732888 -14 42 C-23.35736856 44.3695272 -32.55722759 43.76364557 -41 39 C-44.13770757 36.81623035 -47.10213222 34.4918863 -50 32 C-44.5 26.5 -44.5 26.5 -39 21 C-40.134375 20.54625 -41.26875 20.0925 -42.4375 19.625 C-46 18 -46 18 -47 16 C-47.44621514 9.86454183 -47.44621514 9.86454183 -46 7.0625 C-42.68476331 5.30128051 -39.71856563 5.76390059 -36 6 C-35.34 6.33 -34.68 6.66 -34 7 C-21.71739898 7.98148638 -10.57050285 7.0470019 0 0 Z " fill="#FDBFB9" transform="translate(444,318)"/>
<path d="M0 0 C0.33 0 0.66 0 1 0 C1.00410889 0.67353516 1.00821777 1.34707031 1.01245117 2.04101562 C1.1591311 15.81250083 1.57193209 28.21555778 7 41 C7.28262695 41.68465332 7.56525391 42.36930664 7.85644531 43.07470703 C14.67276278 59.3179251 24.36220983 72.87982971 36 86 C34.69174889 88.85946313 33.25124967 91.00447251 31.125 93.3125 C28.17318028 96.65500175 26.0873475 100.06615279 24 104 C19.85562796 103.50640063 18.35477979 101.4845613 15.8125 98.3125 C8.66663897 89.22202761 2.65606519 79.62903082 -2.5625 69.3125 C-3.08275757 68.28733276 -3.08275757 68.28733276 -3.61352539 67.24145508 C-5.05275478 64.31026511 -6 62.3082981 -6 59 C-6.66 58.67 -7.32 58.34 -8 58 C-7.08782977 52.61672132 -6.12412527 47.27799068 -4.74609375 41.9921875 C-1.12317851 27.96615489 -0.09255312 14.46369418 0 0 Z " fill="#F3AAA7" transform="translate(460,408)"/>
<path d="M0 0 C0.495 0.680625 0.99 1.36125 1.5 2.0625 C3.53529363 4.45397002 5.43703269 6.30142476 7.8125 8.3125 C11.19071737 11.20634062 14.09575329 14.25437907 16.97094727 17.64086914 C26.81125113 29.08195399 37.54145749 39.6320616 48.25 50.25 C51.44569139 53.41889046 54.63790067 56.59123179 57.828125 59.765625 C58.54494446 60.47414612 59.26176392 61.18266724 60.00030518 61.91265869 C64.00092086 65.89397445 67.79816878 69.98330853 71.48309326 74.25823975 C73.22380258 76.2569772 75.04499834 78.14476861 76.9375 80 C77.60523438 80.66 78.27296875 81.32 78.9609375 82 C79.63382813 82.66 80.30671875 83.32 81 84 C85.63443113 88.54564893 90.08575139 93.15515536 94.32128906 98.07617188 C95.93182568 99.9218712 97.58531171 101.70965253 99.2734375 103.484375 C99.78777344 104.02707031 100.30210937 104.56976562 100.83203125 105.12890625 C101.8796292 106.22954713 102.93188862 107.3257662 103.98828125 108.41796875 C106.63778749 111.2292769 108.27835811 113.20500063 109 117 C104.76365474 116.50810209 102.32594421 113.88026169 99.375 111.0625 C98.84938477 110.57104492 98.32376953 110.07958984 97.78222656 109.57324219 C93.60449683 105.64259605 89.54580011 101.5967448 85.546875 97.484375 C83.57532618 95.56120774 81.59349035 93.78341754 79.50097656 92.00097656 C74.751797 87.85776064 70.31498259 83.42952917 65.87966919 78.95483398 C64.40068091 77.46285757 62.91839498 75.97422447 61.43530273 74.48632812 C57.75552613 70.79331846 54.08127373 67.09482888 50.40686035 63.39648438 C47.28954371 60.25929696 44.17008912 57.12426398 41.04788208 53.99194336 C39.60134931 52.53902092 38.15790833 51.08307719 36.71459961 49.62695312 C32.17832883 45.07393127 27.60491182 40.64489907 22.70863342 36.47911072 C19.81766919 33.97649306 17.12848208 31.27658418 14.4375 28.5625 C13.87522705 27.99829346 13.3129541 27.43408691 12.73364258 26.8527832 C9.21740151 23.29989872 5.86222252 19.6545681 2.62109375 15.84765625 C-1.2063809 11.48525743 -5.16278632 7.22480912 -10 4 C-6.7 2.68 -3.4 1.36 0 0 Z " fill="#87B5E6" transform="translate(549,571)"/>
<path d="M0 0 C3.32182954 1.31218177 6.6260569 2.64065858 9.875 4.125 C11.07769531 4.65480469 11.07769531 4.65480469 12.3046875 5.1953125 C19.40665221 9.95054105 23.80920394 17.41388547 28 24.6875 C28.50144531 25.51572266 29.00289063 26.34394531 29.51953125 27.19726562 C29.98746094 28.00228516 30.45539063 28.80730469 30.9375 29.63671875 C31.35902344 30.35561279 31.78054688 31.07450684 32.21484375 31.81518555 C33.23717377 34.6599714 33.05360537 36.18014229 32 39 C29.9375 40.3125 29.9375 40.3125 28 41 C26.8984375 40.20442708 25.796875 39.40885417 24.6953125 38.61328125 C23.97472656 38.0929834 23.25414062 37.57268555 22.51171875 37.03662109 C20.90707221 35.87745437 19.30291328 34.71761237 17.69921875 33.55712891 C13.43297656 30.47142448 9.15916823 27.39748145 4.8671875 24.34765625 C4.0510498 23.7652417 3.23491211 23.18282715 2.39404297 22.58276367 C0.82049488 21.46029081 -0.75592845 20.34183575 -2.33544922 19.2277832 C-3.04975098 18.71691162 -3.76405273 18.20604004 -4.5 17.6796875 C-5.1290625 17.23351074 -5.758125 16.78733398 -6.40625 16.32763672 C-8 15 -8 15 -10 12 C-9.52949219 11.55269531 -9.05898438 11.10539063 -8.57421875 10.64453125 C-5.14923351 7.31882095 -2.21128342 4.29249134 0 0 Z " fill="#12253D" transform="translate(318,694)"/>
<path d="M0 0 C4.14276031 3.94067444 6.29712674 7.27660347 7 13 C6.31921137 18.34905351 4.60106743 21.32474918 0.9375 25.25 C-2.82724383 28.14379563 -6.76600807 28.71476481 -11.4375 28.4375 C-16.72244806 26.70972852 -19.21412428 23.76603311 -22.4375 19.4375 C-24.17896843 15.95456314 -23.88623928 12.24555141 -23.4375 8.4375 C-22.16054137 4.8078839 -20.18999841 2.14439244 -17.375 -0.5 C-11.5254244 -2.61580394 -5.65935346 -2.57243339 0 0 Z " fill="#69BE27" transform="translate(773.4375,480.5625)"/>
<path d="M0 0 C12.21106764 -1.12626352 23.97370424 4.99558311 34.09375 11.453125 C36.09375 14.453125 36.09375 14.453125 36.09375 18.453125 C19.92375 18.453125 3.75375 18.453125 -12.90625 18.453125 C-12.90625 7.203125 -12.90625 7.203125 -11.90625 1.453125 C-9.8590004 1.17074574 -7.80782982 0.9092898 -5.75 0.71875 C-3.826789 0.53910941 -1.90852455 0.29756566 0 0 Z " fill="#132740" transform="translate(429.90625,718.546875)"/>
<path d="M0 0 C3.4271775 2.23511576 6.14346983 4.13431035 7.875 7.875 C8.79486584 12.85472485 9.12040683 17.64916653 6.58984375 22.171875 C3.82998916 25.45386425 1.67992331 27.65862831 -2.69921875 28.18359375 C-12.14208225 28.57457806 -12.14208225 28.57457806 -16.25 25.1875 C-19.77724371 21.51436057 -20.93745896 18.56286936 -21.5 13.5 C-20.97820278 8.45596022 -19.48057862 4.85741765 -15.546875 1.546875 C-10.38509076 -1.75480681 -5.82128607 -2.09566299 0 0 Z " fill="#69BE27" transform="translate(764.125,430.125)"/>
<path d="M0 0 C4.30742759 2.23654894 7.64038378 4.73453991 10 9 C10.79562414 14.30957333 10.64704364 18.60636754 8.375 23.5 C4.7053959 27.36274116 1.30510501 29.12364837 -4 29.4375 C-9.37954214 29.21164136 -12.4373933 26.35700055 -16.375 22.9375 C-18.90009929 18.37289743 -18.97487287 14.08534428 -18 9 C-14.0868329 1.89318362 -8.10592505 -1.26752882 0 0 Z " fill="#4AB31B" transform="translate(756,381)"/>
<path d="M0 0 C0.44988281 0.3403125 0.89976562 0.680625 1.36328125 1.03125 C7.192212 5.4233902 13.08913804 9.7189713 19 14 C14.38927934 22.31127308 9.65131498 30.33540405 4 38 C3.50371094 37.67386719 3.00742187 37.34773437 2.49609375 37.01171875 C-1.88567579 34.19308521 -6.15590098 31.91745586 -11 30 C-10.46890718 24.16746281 -8.07599573 19.59347907 -5.5 14.4375 C-4.671809 12.7721438 -3.84871613 11.10424055 -3.03125 9.43359375 C-2.66580078 8.70197021 -2.30035156 7.97034668 -1.92382812 7.21655273 C-0.92773776 4.82662027 -0.42763454 2.54817569 0 0 Z " fill="#FDC3BC" transform="translate(332,666)"/>
<path d="M0 0 C0.67417969 0.309375 1.34835937 0.61875 2.04296875 0.9375 C1.81951602 6.57698914 -1.8904066 9.46573004 -5.66015625 13.20703125 C-6.33496033 13.88803391 -7.0097644 14.56903656 -7.70501709 15.27067566 C-9.13247857 16.70523182 -10.56509015 18.13467919 -12.00244141 19.55932617 C-14.2009679 21.74397493 -16.37443592 23.95155301 -18.546875 26.16210938 C-19.93735025 27.55353569 -21.32923137 28.94355881 -22.72265625 30.33203125 C-23.37179993 30.99443314 -24.0209436 31.65683502 -24.6897583 32.33930969 C-29.22541295 36.78283732 -29.22541295 36.78283732 -32.69873047 37.51708984 C-36.74533526 36.47853419 -38.98517877 33.66928346 -41.83203125 30.75 C-42.74082031 29.8827832 -42.74082031 29.8827832 -43.66796875 28.99804688 C-45.28426295 27.37256918 -46.71137526 25.86244758 -47.95703125 23.9375 C-47.83984375 21.01171875 -47.83984375 21.01171875 -46.95703125 18.9375 C-42.50029966 19.43621064 -40.38015947 20.95754362 -37.14453125 24 C-36.35433594 24.73347656 -35.56414063 25.46695313 -34.75 26.22265625 C-33.86248047 27.07150391 -33.86248047 27.07150391 -32.95703125 27.9375 C-32.17328125 27.2775 -31.38953125 26.6175 -30.58203125 25.9375 C-27.95703125 23.9375 -27.95703125 23.9375 -25.95703125 23.9375 C-25.95703125 23.2775 -25.95703125 22.6175 -25.95703125 21.9375 C-24.734375 20.73828125 -24.734375 20.73828125 -22.89453125 19.25 C-19.83183081 16.68677221 -17.01308756 13.99433621 -14.26171875 11.10546875 C-13.6056665 10.42250732 -12.94961426 9.7395459 -12.27368164 9.03588867 C-10.94553233 7.64528771 -9.62936522 6.24313577 -8.32592773 4.8293457 C-3.60544597 -0.07620493 -3.60544597 -0.07620493 0 0 Z " fill="#FBFCFA" transform="translate(547.95703125,512.0625)"/>
<path d="M0 0 C5.94 0 11.88 0 18 0 C18 4.62 18 9.24 18 14 C15.18780295 14.19384179 12.37545804 14.38036603 9.5625 14.5625 C8.35883789 14.64661133 8.35883789 14.64661133 7.13085938 14.73242188 C5.08937889 14.8616295 3.04453631 14.9351273 1 15 C0 14 0 14 -0.09765625 10.83984375 C-0.04882812 5.41992188 -0.04882812 5.41992188 0 0 Z " fill="#FDC3BD" transform="translate(420,705)"/>
<path d="M0 0 C0.33 0.99 0.66 1.98 1 3 C16.18 3 31.36 3 47 3 C47.33 2.01 47.66 1.02 48 0 C48.495 2.475 48.495 2.475 49 5 C32.83 5 16.66 5 0 5 C0 3.35 0 1.7 0 0 Z " fill="#02132F" transform="translate(417,732)"/>
<path d="M0 0 C0.33 0 0.66 0 1 0 C1.33 9.9 1.66 19.8 2 30 C1.34 30 0.68 30 0 30 C-0.89818596 26.23487702 -1.0571181 22.90422547 -0.87890625 19.04296875 C-0.83056641 17.93115234 -0.78222656 16.81933594 -0.73242188 15.67382812 C-0.67634766 14.52333984 -0.62027344 13.37285156 -0.5625 12.1875 C-0.51029297 11.01767578 -0.45808594 9.84785156 -0.40429688 8.64257812 C-0.27493908 5.76142726 -0.13998535 2.88065085 0 0 Z " fill="#EC8B8A" transform="translate(460,408)"/>
<path d="M0 0 C0 3 0 3 -1.3125 4.375 C-1.869375 4.91125 -2.42625 5.4475 -3 6 C-4.03789581 7.64333504 -5.03567924 9.31243867 -6 11 C-7.5 13.5 -7.5 13.5 -9 16 C-9.66 15.67 -10.32 15.34 -11 15 C-7.8200442 9.37224317 -4.87305969 4.29975855 0 0 Z " fill="#37BB10" transform="translate(495,496)"/>
<path d="M0 0 C0.66 0 1.32 0 2 0 C4.07375887 4.39148936 4.07375887 4.39148936 3.75 7.0625 C2.96262076 9.09656303 1.97543616 11.04912769 1 13 C0.67 8.71 0.34 4.42 0 0 Z " fill="#F9F5F6" transform="translate(452,467)"/>
<path d="M0 0 C1.38978246 2.77956492 0.61356169 4.12046386 -0.25 7.0625 C-0.62898438 8.41021484 -0.62898438 8.41021484 -1.015625 9.78515625 C-1.50289063 10.88150391 -1.50289063 10.88150391 -2 12 C-2.99 12.33 -3.98 12.66 -5 13 C-5.33 13.66 -5.66 14.32 -6 15 C-5.39644592 11.14974121 -4.23227397 8.13898841 -2.4375 4.6875 C-1.98246094 3.80449219 -1.52742188 2.92148437 -1.05859375 2.01171875 C-0.53458984 1.01591797 -0.53458984 1.01591797 0 0 Z " fill="#0D172C" transform="translate(351,626)"/>
<path d="M0 0 C0.99 0.33 1.98 0.66 3 1 C1.74057614 2.19959375 0.46704714 3.38439443 -0.8125 4.5625 C-1.87404297 5.55443359 -1.87404297 5.55443359 -2.95703125 6.56640625 C-3.63121094 7.03949219 -4.30539062 7.51257813 -5 8 C-5.99 7.67 -6.98 7.34 -8 7 C-6.74057614 5.80040625 -5.46704714 4.61560557 -4.1875 3.4375 C-3.12595703 2.44556641 -3.12595703 2.44556641 -2.04296875 1.43359375 C-1.36878906 0.96050781 -0.69460938 0.48742187 0 0 Z " fill="#D4282B" transform="translate(396,374)"/>
<path d="M0 0 C4.54805635 -0.17835515 7.8794254 0.00214565 12 2 C8.0186217 3.3271261 4.14954773 3.06915913 0 3 C0 2.01 0 1.02 0 0 Z " fill="#74C237" transform="translate(754,429)"/>
<path d="M0 0 C1.31611677 0.95336021 2.62778961 1.91285774 3.9375 2.875 C4.66839844 3.40867187 5.39929688 3.94234375 6.15234375 4.4921875 C8 6 8 6 9 8 C8.05125 7.67 7.1025 7.34 6.125 7 C3.22937548 5.89840809 3.22937548 5.89840809 1 6 C0.67 4.02 0.34 2.04 0 0 Z " fill="#F2D2C8" transform="translate(332,666)"/>
<path d="M0 0 C4.8 3.44615385 4.8 3.44615385 5.8125 6.25 C5.874375 6.8275 5.93625 7.405 6 8 C4.68 7.67 3.36 7.34 2 7 C2 6.01 2 5.02 2 4 C1.05021103 1.84971696 1.05021103 1.84971696 0 0 Z " fill="#8FBBE9" transform="translate(652,680)"/>
</svg>
